<svg width="176" height="20" viewBox="0 0 176 20" xmlns="http://www.w3.org/2000/svg"><title>F5DF5922-6F86-4187-BC16-359E7595F2AE</title><path d="M93.604 13.721c0 3.88-2.111 6.178-6.147 6.178-2.266 0-3.88-.342-5.587-.9l.341-4.626c2.142.62 3.446.962 4.75.962.807 0 1.18-.372 1.18-1.148 0-2.235-6.8-1.987-6.8-8.071C81.341 2.483 83.577 0 87.395 0c1.925 0 4.098.248 5.743.559l-.62 4.967c-1.74-.403-3.198-.714-4.223-.714-.9 0-1.459.372-1.459 1.18 0 1.738 6.768 1.893 6.768 7.729zM62.409 3.307l.553 16.548h-5.026v-10.5h-.126l-1.832 10.5H50.98l-1.739-10.5h-.57v10.5H44.12l.478-14.33c2.515-.346 5.16-.861 7.84-1.197l1.056 6.263h.249l1.066-6.555c2.555-.312 5.115-.443 7.6-.729zM100.775.091h12.727l-.31 4.941h-3.377v14.823h-5.558V5.032h-3.793l.31-4.94zm23.246 10.681c0 3.694-.268 4.626-2.069 4.626-1.924 0-2.255-.9-2.255-4.905v-.745c0-3.57.207-4.843 2.069-4.843 1.987 0 2.255 1.21 2.255 4.874v.993zM121.729 0c-5.464 0-7.637 2.95-7.637 9.872 0 6.674 2.11 10.027 7.543 10.027 5.495 0 7.668-3.29 7.668-10.244 0-6.643-2.08-9.655-7.574-9.655zM175 13.721c0 3.88-2.111 6.178-6.147 6.178-2.266 0-3.88-.342-5.588-.9l.342-4.626c2.142.62 3.446.962 4.75.962.807 0 1.18-.372 1.18-1.148 0-2.235-6.8-1.987-6.8-8.071 0-3.633 2.236-6.116 6.055-6.116 1.924 0 4.097.248 5.742.559l-.62 4.967c-1.739-.403-3.198-.714-4.222-.714-.9 0-1.46.372-1.46 1.18 0 1.738 6.768 1.893 6.768 7.729zm-132.557 0c0 3.88-2.11 6.178-6.146 6.178-2.267 0-3.88-.342-5.588-.9l.341-4.626c2.142.62 3.446.962 4.75.962.807 0 1.18-.372 1.18-1.148 0-2.005-5.47-2.015-6.595-6.39 1.523-.35 3.472-.717 5.72-1.092 1.487 1.206 6.338 2.074 6.338 7.016zM140.079.091h5.558v13.444c0 4.564-2.647 6.364-7.242 6.364-4.532 0-6.963-1.832-6.963-6.302V.091h5.559v13.164c0 1.274.333 1.894 1.575 1.894 1.273 0 1.513-.62 1.513-1.925V.091zm14.215 9.265h-.628V5.032h.66c.992 0 1.458.548 1.458 2.1 0 1.77-.435 2.224-1.49 2.224zm7.17-3.04c0-4.315-1.893-6.225-5.99-6.225h-7.366v19.764h5.558v-7.411h.535l1.925 7.411h5.743l-2.577-8.384c1.459-1.21 2.173-2.764 2.173-5.155zm-86.853 4.456c0 3.694-.268 4.626-2.068 4.626-1.925 0-2.255-.9-2.255-4.905v-.745c0-3.57.206-4.843 2.068-4.843 1.987 0 2.255 1.21 2.255 4.874v.993zm3.01-9.222c-3.027.315-6.937.731-11.245 1.213-1.023 1.602-1.488 3.933-1.488 7.109 0 6.674 2.111 10.027 7.544 10.027 5.494 0 7.667-3.29 7.667-10.244 0-3.938-.739-6.59-2.478-8.105zm-10.924.745C67.924.725 69.82 0 72.524 0c2.12 0 3.726.453 4.905 1.384-2.854.223-6.522.526-10.732.911zM30.2 6.621a7.42 7.42 0 0 1-.018-.505C30.181 2.483 32.416 0 36.234 0c1.925 0 4.098.248 5.743.559l-.56 4.488-1.391.18c-1.156-.248-2.141-.415-2.891-.415-.83 0-1.364.321-1.443 1.003-1.84.258-3.673.527-5.493.806zM13.733 9.6c.06-6.724 2.242-9.6 7.631-9.6 4.645 0 6.843 2.162 7.414 6.841-1.77.279-3.52.568-5.244.867-.166-2.06-.714-2.803-2.263-2.803-1.627 0-2.046.972-2.125 3.599-1.856.353-3.666.718-5.413 1.096zm-12.55 3.434A21.957 21.957 0 0 1 1 10.12C1 3.82 3.018 0 8.544 0c1.645 0 3.29.435 4.5.994l-.837 4.812c-1.397-.466-2.484-.808-3.384-.808-1.863 0-2.421 1.583-2.421 5.154 0 .435.008.841.027 1.217-.24.066-.484.131-.72.197-1.355.38-2.899.888-4.527 1.469zm11.055 1.586l.807 4.38c-1.521.558-3.073.9-4.936.9-2.553 0-4.332-.89-5.473-2.565a70.583 70.583 0 0 1 5.178-2.362c.306.158.668.24 1.102.24.807 0 2.018-.249 3.322-.59zM54.912 3.298L55.42.091h6.892l.08 2.5c-2.381.23-4.887.43-7.479.707zm-10.287 1.18L44.77.09h6.985l.572 3.543c-2.514.279-5.093.523-7.703.844zM28.829 8.17c.026.475.102.965.102 1.485 0 6.953-2.18 10.244-7.676 10.244-4.605 0-6.832-2.42-7.4-7.22 1.596-.556 3.31-1.132 5.215-1.725.033 3.606.415 4.444 2.263 4.444 1.8 0 2.016-.932 2.016-4.626V9.78c0-.055.125-.103.124-.157a261.38 261.38 0 0 1 5.356-1.452z" fill="#FFF" fill-rule="evenodd"/></svg>