<?xml version="1.0" encoding="UTF-8" standalone="no"?>
<svg width="16px" height="16px" viewBox="0 0 16 16" version="1.1" xmlns="http://www.w3.org/2000/svg" xmlns:xlink="http://www.w3.org/1999/xlink">
    <!-- Generator: sketchtool 3.8.3 (29802) - http://www.bohemiancoding.com/sketch -->
    <title>384FACD6-C111-4515-AAE3-30A9EB0F488F</title>
    <desc>Created with sketchtool.</desc>
    <defs></defs>
    <g id="Page-1" stroke="none" stroke-width="1" fill="none" fill-rule="evenodd">
        <g id="CT_Homepage_Mobie" transform="translate(-280.000000, -1668.000000)" fill="#E15968">
            <g id="field-correct" transform="translate(24.000000, 1632.000000)">
                <g id="icon_close_16" transform="translate(256.000000, 36.000000)">
                    <g id="-g-Group">
                        <path d="M6.586125,8.000125 L2.29325,3.70725 C1.90225,3.31625 1.90225,2.68425 2.29325,2.29325 C2.68425,1.90225 3.31625,1.90225 3.70725,2.29325 L8.00025,6.58625 L12.29325,2.29325 C12.68425,1.90225 13.31625,1.90225 13.70725,2.29325 C14.09825,2.68425 14.09825,3.31625 13.70725,3.70725 L9.414375,8.000125 L13.70725,12.293 C14.09825,12.684 14.09825,13.316 13.70725,13.707 C13.31625,14.098 12.68425,14.098 12.29325,13.707 L8.00025,9.414 L3.70725,13.707 C3.31625,14.098 2.68425,14.098 2.29325,13.707 C1.90225,13.316 1.90225,12.684 2.29325,12.293 L6.586125,8.000125 Z" id="Combined-Shape"></path>
                    </g>
                </g>
            </g>
        </g>
    </g>
</svg>