<svg width="216" height="24" viewBox="0 0 216 24" xmlns="http://www.w3.org/2000/svg"><title>C15F1A95-0923-48A0-A297-D9D3E5A55A56</title><path d="M111.688 16.549c0 4.68-2.546 7.451-7.413 7.451-2.733 0-4.68-.412-6.739-1.086l.412-5.579c2.583.749 4.156 1.16 5.728 1.16.974 0 1.423-.448 1.423-1.385 0-2.695-8.2-2.396-8.2-9.734C96.9 2.996 99.595 0 104.201 0c2.32 0 4.941.3 6.926.674l-.749 5.99c-2.097-.486-3.856-.86-5.092-.86-1.085 0-1.76.449-1.76 1.422 0 2.097 8.162 2.284 8.162 9.323zM74.065 3.989l.667 19.958H68.67V11.284h-.152l-2.21 12.663H60.28l-2.096-12.663h-.688v12.663h-5.49l.577-17.282c3.034-.419 6.224-1.04 9.456-1.445l1.274 7.554h.3l1.285-7.907c3.082-.376 6.17-.534 9.167-.878zM120.337.11h15.35l-.373 5.96h-4.073v17.877h-6.704V6.07h-4.574l.374-5.959zm28.037 12.883c0 4.455-.323 5.578-2.495 5.578-2.32 0-2.72-1.086-2.72-5.916v-.898c0-4.306.25-5.841 2.495-5.841 2.397 0 2.72 1.46 2.72 5.878v1.199zM145.61 0c-6.59 0-9.211 3.558-9.211 11.907 0 8.049 2.546 12.093 9.098 12.093 6.628 0 9.248-3.969 9.248-12.356C154.745 3.632 152.237 0 145.61 0zm64.25 16.549c0 4.68-2.546 7.451-7.413 7.451-2.734 0-4.68-.412-6.74-1.086l.412-5.579c2.584.749 4.156 1.16 5.728 1.16.974 0 1.423-.448 1.423-1.385 0-2.695-8.2-2.396-8.2-9.734 0-4.38 2.696-7.376 7.302-7.376 2.321 0 4.942.3 6.926.674l-.749 5.99c-2.096-.486-3.856-.86-5.09-.86-1.087 0-1.762.449-1.762 1.422 0 2.097 8.163 2.284 8.163 9.323zm-159.876 0c0 4.68-2.546 7.451-7.413 7.451-2.734 0-4.68-.412-6.74-1.086l.412-5.579c2.584.749 4.156 1.16 5.73 1.16.972 0 1.421-.448 1.421-1.385 0-2.418-6.596-2.43-7.953-7.706 1.837-.422 4.188-.864 6.9-1.317 1.792 1.454 7.643 2.502 7.643 8.462zM167.742.11h6.704v16.215c0 5.504-3.194 7.675-8.735 7.675-5.466 0-8.398-2.21-8.398-7.6V.11h6.704v15.877c0 1.536.402 2.284 1.9 2.284 1.535 0 1.825-.748 1.825-2.321V.11zm17.145 11.174h-.758V6.069h.795c1.198 0 1.76.66 1.76 2.532 0 2.135-.525 2.683-1.797 2.683zm8.648-3.666c0-5.205-2.284-7.508-7.226-7.508h-8.884v23.837h6.704v-8.939h.645l2.322 8.94h6.926l-3.107-10.113c1.76-1.46 2.62-3.334 2.62-6.217zM88.782 12.993c0 4.455-.323 5.578-2.495 5.578-2.32 0-2.72-1.086-2.72-5.916v-.898c0-4.306.25-5.841 2.495-5.841 2.397 0 2.72 1.46 2.72 5.878v1.199zm3.63-11.123c-3.651.38-8.367.882-13.563 1.462-1.234 1.932-1.794 4.743-1.794 8.575C77.055 19.956 79.6 24 86.153 24c6.627 0 9.248-3.969 9.248-12.356 0-4.748-.892-7.947-2.99-9.774zm-13.175.898C80.717.875 83.004 0 86.265 0c2.556 0 4.493.547 5.916 1.67-3.442.268-7.866.633-12.944 1.098zm-44.02 5.217a8.949 8.949 0 0 1-.022-.609c0-4.38 2.696-7.376 7.3-7.376 2.322 0 4.943.3 6.927.674l-.676 5.413c-.558.071-1.118.143-1.677.217-1.394-.299-2.583-.5-3.487-.5-1.001 0-1.645.387-1.74 1.21-2.218.31-4.43.635-6.625.971zm-19.86 3.594C15.429 3.47 18.062 0 24.562 0c5.602 0 8.253 2.608 8.942 8.251a412.13 412.13 0 0 0-6.325 1.045c-.2-2.485-.86-3.38-2.729-3.38-1.963 0-2.468 1.172-2.564 4.34-2.237.426-4.42.866-6.527 1.323zM.22 15.72A26.483 26.483 0 0 1 0 12.206C0 4.606 2.434 0 9.098 0c1.985 0 3.97.524 5.43 1.199l-1.012 5.803c-1.685-.562-2.995-.974-4.081-.974-2.247 0-2.92 1.91-2.92 6.216 0 .525.01 1.015.033 1.468-.29.08-.584.158-.869.238-1.633.457-3.496 1.071-5.46 1.771zm13.333 1.914l.974 5.279C12.692 23.588 10.82 24 8.574 24c-3.079 0-5.225-1.074-6.6-3.094 1.644-.84 3.694-1.796 6.245-2.848.368.19.805.288 1.328.288.974 0 2.434-.3 4.006-.711zm51.47-13.657L65.635.11h8.311l.098 3.015c-2.873.278-5.895.518-9.02.853zM52.615 5.4l.177-5.29h8.424l.69 4.272c-3.032.336-6.142.63-9.29 1.018zM33.564 9.854c.032.573.123 1.164.123 1.79 0 8.387-2.63 12.356-9.257 12.356-5.555 0-8.241-2.918-8.926-8.707a194.128 194.128 0 0 1 6.29-2.081c.04 4.35.5 5.36 2.729 5.36 2.171 0 2.432-1.124 2.432-5.58v-1.198c0-.066.15-.124.15-.19 2.007-.573 4.2-1.157 6.459-1.75z" fill-rule="evenodd"/></svg>